<?xml version="1.0" encoding="UTF-8" standalone="no"?>
<svg id="Layer_1" data-name="Layer 1" xmlns="http://www.w3.org/2000/svg" xmlns:xlink="http://www.w3.org/1999/xlink" xmlns:ev="http://www.w3.org/2001/xml-events" viewBox="0 0 505.4 140.6" height="140.6" width="505.4" xmlns:dc="http://purl.org/dc/elements/1.1/" xmlns:cc="http://creativecommons.org/ns#" xmlns:rdf="http://www.w3.org/1999/02/22-rdf-syntax-ns#" xmlns:svg="http://www.w3.org/2000/svg" xml:space="preserve" version="1.1">
	<metadata
     id="metadata8"><rdf:RDF><cc:Work
         rdf:about=""><dc:format>image/svg+xml</dc:format><dc:type
           rdf:resource="http://purl.org/dc/dcmitype/StillImage" /></cc:Work></rdf:RDF></metadata>
	<defs><style>.cls-1,.cls-3{fill:#fff;}.cls-2{fill:#ed1c24;}.cls-3{isolation:isolate;font-size:30.64px;font-family:Arial;}</style></defs>
	<title>CSProduct_Logo2</title>
	<path class="cls-1" d="M160.2,458.3s-14.1,0-14.1,14.1v82.7s0,14.1,14.1,14.1H629.8s14.1,0,14.1-14.1V472.4s0-14.1-14.1-14.1H160.2Z" transform="translate(-142.3 -432.3)"/>
	<path d="M629.9,572.9H160.2c-13.1,0-17.9-10.7-17.9-17.9V472.3c0-13.1,10.7-17.9,17.9-17.9H629.8c13.1,0,17.9,10.7,17.9,17.9V555c0,7.2-3.2,12.8-9.1,15.7A19.85,19.85,0,0,1,629.9,572.9ZM160.2,462.1c-1.7,0-10.3.6-10.3,10.3v82.7c0,1.7.6,10.3,10.3,10.3H629.8c1.7,0,10.3-.6,10.3-10.3V472.4c0-1.7-.6-10.3-10.3-10.3H160.2Z" transform="translate(-142.3 -432.3)"/>
	<path d="M162.6,550.5V489.1c0-4.3,2.7-7.6,7.1-7.6h12.6c12.7,0,21.6,9.7,21.6,22.3s-8.9,22.8-21.6,22.8h-7.5a0.53,0.53,0,0,0-.6.6v23.2a5.85,5.85,0,0,1-5.9,5.9A5.66,5.66,0,0,1,162.6,550.5Zm11.5-36c0,0.4.2,0.6,0.8,0.6h6.2c8.9,0,11.3-7,11.3-11.3S190,493,181.1,493h-6.2a0.74,0.74,0,0,0-.8.8v20.7Z" transform="translate(-142.3 -432.3)"/>
	<path d="M253.2,556.4c-3.1,0-4.5-2.1-6.2-5.2l-13.6-24.1a0.92,0.92,0,0,0-1-.6h-7.2a0.53,0.53,0,0,0-.6.6v21.3c0,4.4-1.7,7.8-6,7.8s-5.7-4-5.7-7.9V489c0-4.3,2.8-7.6,7-7.6h12.9c14.5,0,23.9,8.2,23.9,22.6a23.32,23.32,0,0,1-11.2,20.6,0.42,0.42,0,0,0-.3.4c0,0.1.1,0.2,0.1,0.3l13.2,23a5.33,5.33,0,0,1,.6,2.4,5.45,5.45,0,0,1-2.7,4.7A4.72,4.72,0,0,1,253.2,556.4Zm-28.5-41.3a0.59,0.59,0,0,0,.7.7h8.3c9.4,0,11.7-6.1,11.7-11.7,0-5-2.3-11.1-11.7-11.1h-8.3a0.67,0.67,0,0,0-.7.8v21.3Z" transform="translate(-142.3 -432.3)"/>
	<path d="M301.4,480.7a38,38,0,1,1-38,38A37.92,37.92,0,0,1,301.4,480.7Zm0,64.5a26.45,26.45,0,1,0-26.5-26.5A26.46,26.46,0,0,0,301.4,545.2Z" transform="translate(-142.3 -432.3)"/>
	<path d="M353.5,556a6,6,0,0,1-6.1-5.7V487.7a6.09,6.09,0,0,1,6.3-6.3H371a37.2,37.2,0,1,1,0,74.4H353.5V556Zm6.1-62.9a0.51,0.51,0,0,0-.6.5v50.2a0.5,0.5,0,0,0,.6.6H371a25.38,25.38,0,0,0,25.7-25.7c0-14.5-10.9-25.6-25.5-25.6H359.6Z" transform="translate(-142.3 -432.3)"/>
	<path d="M415.9,486.7a5.74,5.74,0,0,1,5.9-5.7,5.6,5.6,0,0,1,5.8,5.7v46.6A11.76,11.76,0,0,0,439.5,545a11.57,11.57,0,0,0,11.6-11.4V486.7A5.74,5.74,0,0,1,457,481a5.6,5.6,0,0,1,5.8,5.7v48.2c0,12.4-10.9,21.6-23.2,21.6s-23.5-9.3-23.5-21.7V486.7h-0.2Z" transform="translate(-142.3 -432.3)"/>
	<path d="M469.8,518.8a38.15,38.15,0,0,1,38.1-38.1c14.3,0,22.2,6.9,23.7,8.1s3.1,2.9,3.1,5.5a5.74,5.74,0,0,1-5.8,5.8c-1.9,0-2.8-.5-4.4-1.9a26.45,26.45,0,0,0-16.8-5.9c-15,.3-26.4,11.9-26.4,26.5,0,13.9,12.8,26,26.5,26.4a27,27,0,0,0,16.7-5.9c1.6-1.3,2.5-2,4.4-2a5.8,5.8,0,0,1,5.8,5.8c0,2.8-1.7,4.3-3.2,5.6s-9.3,8-23.6,8A38.11,38.11,0,0,1,469.8,518.8Z" transform="translate(-142.3 -432.3)"/>
	<path d="M580.6,493.1H568.9c-0.1,0-.7-0.1-0.7.9v57a5.6,5.6,0,0,1-5.8,5.4c-3.3,0-5.9-2.2-5.9-5.4V493.7a0.53,0.53,0,0,0-.6-0.6H544.3a5.88,5.88,0,0,1-5.6-5.7c0-2.6,2.7-6,5.6-6h36.2c1.5,0,5.6,2.8,5.6,6A6,6,0,0,1,580.6,493.1Z" transform="translate(-142.3 -432.3)"/>
	<path d="M594.8,536.6c6.5,0,7,8.7,15.7,8.7,4.9,0,9.4-4.6,9.4-9.8,0-7.5-6.1-10.3-12.1-12.5-11.5-4.2-17.9-10.4-17.9-21,0-12.3,8.9-21.3,21.1-21.3,7.5,0,15.1,4.3,18.1,11.2a6.87,6.87,0,0,1,.5,2.4,5.75,5.75,0,0,1-10.9,2.7,9.12,9.12,0,0,0-17.1,4.3c0,7.1,5.7,8.7,11.6,11.3,12.5,5.5,18.2,11.1,18.2,22.7s-9.4,21.3-20.6,21.3c-11,0-21-6.8-21-14.7A5.28,5.28,0,0,1,594.8,536.6Z" transform="translate(-142.3 -432.3)"/>
	<path class="cls-2" d="M177.7,432.3s-3.5,0-3.5,3.4v33.4a3.36,3.36,0,0,0,3.5,3.4H523.3s3.5,0,3.5-3.4V435.7a3.36,3.36,0,0,0-3.5-3.4H177.7Z" transform="translate(-142.3 -432.3)"/>
	<path class="cls-1" d="M190.6,465c-4.3,0-7-2.9-7-6.7V446.2c0-3.8,2.7-6.7,7-6.7s6.6,2.7,6.6,6.4v3h-4.1V446a2.21,2.21,0,0,0-2.4-2.4,2.26,2.26,0,0,0-2.5,2.3v12.8c0,1.4.8,2.3,2.5,2.3a2.16,2.16,0,0,0,2.4-2.4v-2.9h4.1v3C197.2,462.3,194.9,465,190.6,465Z" transform="translate(-142.3 -432.3)"/>
	<path class="cls-1" d="M211.8,465c-4.2,0-6.9-2.8-6.9-6.7V446.2c0-3.8,2.7-6.6,6.9-6.6s6.9,2.8,6.9,6.6v12.1C218.8,462.2,216.1,465,211.8,465Zm2.4-19.1a2.3,2.3,0,1,0-4.6,0v12.7a2.3,2.3,0,1,0,4.6,0V445.9Z" transform="translate(-142.3 -432.3)"/>
	<path class="cls-1" d="M237.7,464.4L233,454l-1.7-3.9v14.3h-4.2V440.1H231l4.5,10.6,1.6,3.9V440.2h4.1v24.3h-3.5v-0.1Z" transform="translate(-142.3 -432.3)"/>
	<path class="cls-1" d="M258.2,464.4h-4.4l-5.3-24.3h4.7l3,16.8,3-16.8h4.4Z" transform="translate(-142.3 -432.3)"/>
	<path class="cls-1" d="M270.7,464.4V440.1h11.6V444h-7.1v6h4.9v3.6h-4.9v6.8h7.1v4.1H270.7v-0.1Z" transform="translate(-142.3 -432.3)"/>
	<path class="cls-1" d="M300.8,464.4L296.1,454l-1.7-3.9v14.3h-4.2V440.1h3.9l4.5,10.6,1.6,3.9V440.2h4.1v24.3h-3.5v-0.1Z" transform="translate(-142.3 -432.3)"/>
	<path class="cls-1" d="M313,464.4V440.1h4.5v24.3H313Z" transform="translate(-142.3 -432.3)"/>
	<path class="cls-1" d="M326.2,464.4V440.1h11.6V444h-7.1v6h4.9v3.6h-4.9v6.8h7.1v4.1H326.2v-0.1Z" transform="translate(-142.3 -432.3)"/>
	<path class="cls-1" d="M356.3,464.4L351.6,454l-1.7-3.9v14.3h-4.2V440.1h3.9l4.5,10.6,1.6,3.9V440.2h4.1v24.3h-3.5v-0.1Z" transform="translate(-142.3 -432.3)"/>
	<path class="cls-1" d="M375.2,465c-4.3,0-7-2.9-7-6.7V446.2c0-3.8,2.7-6.7,7-6.7s6.6,2.7,6.6,6.4v3h-4.1V446a2.21,2.21,0,0,0-2.4-2.4,2.26,2.26,0,0,0-2.5,2.3v12.8c0,1.4.8,2.3,2.5,2.3a2.16,2.16,0,0,0,2.4-2.4v-2.9h4.1v3C381.8,462.3,379.5,465,375.2,465Z" transform="translate(-142.3 -432.3)"/>
	<path class="cls-1" d="M389.8,464.4V440.1h11.6V444h-7.1v6h4.9v3.6h-4.9v6.8h7.1v4.1H389.8v-0.1Z" transform="translate(-142.3 -432.3)"/>
	<path class="cls-1" d="M427.4,465c-4.2,0-6.8-2.5-6.8-6.3V457h4.2v1.4c0,1.8.8,2.8,2.5,2.8a2.21,2.21,0,0,0,2.4-2.4c0-1.9-1.2-3.3-3.7-5s-5.2-4.2-5.2-7.6,2.3-6.5,6.7-6.5a6,6,0,0,1,6.4,6.2v1.6h-4.1V446c0-1.5-.8-2.6-2.3-2.6a2,2,0,0,0-2.2,2.2c0,2,1.2,3.1,3.9,5.1,2.9,2.2,4.9,4.3,4.9,7.6A6.46,6.46,0,0,1,427.4,465Z" transform="translate(-142.3 -432.3)"/>
	<path class="cls-1" d="M449.9,444.1v20.3h-4.6V444.1h-4.5v-4h13.5v4h-4.4Z" transform="translate(-142.3 -432.3)"/>
	<path class="cls-1" d="M467.3,465c-4.2,0-6.9-2.8-6.9-6.7V446.2c0-3.8,2.7-6.6,6.9-6.6s6.9,2.8,6.9,6.6v12.1C474.2,462.2,471.5,465,467.3,465Zm2.3-19.1a2.3,2.3,0,1,0-4.6,0v12.7a2.3,2.3,0,1,0,4.6,0V445.9Z" transform="translate(-142.3 -432.3)"/>
	<path class="cls-1" d="M493.8,464.6c-1.8,0-2.5-1.5-2.5-3.6v-4.6a1.89,1.89,0,0,0-1.9-2.1H487v10.1h-4.5V440.1H490c3.3,0,5.6,1.9,5.6,5.3v3.4a3.65,3.65,0,0,1-2.7,3.8,3.7,3.7,0,0,1,2.8,3.7v4.5a3.33,3.33,0,0,0,.9,2.5v1.4h-2.8v-0.1Zm-2.6-19a1.54,1.54,0,0,0-1.6-1.8h-2.5V451h2.3a1.62,1.62,0,0,0,1.8-1.9v-3.5h0Z" transform="translate(-142.3 -432.3)"/>
	<path class="cls-1" d="M504.1,464.4V440.1h11.6V444h-7.1v6h4.9v3.6h-4.9v6.8h7.1v4.1H504.1v-0.1Z" transform="translate(-142.3 -432.3)"/>
	<text class="cls-3" transform="translate(314.29 33.55)"> </text>
</svg>